<?xml version="1.0" standalone="no"?>
<!DOCTYPE svg PUBLIC "-//W3C//DTD SVG 20010904//EN"
 "http://www.w3.org/TR/2001/REC-SVG-20010904/DTD/svg10.dtd">
<svg version="1.0" xmlns="http://www.w3.org/2000/svg"
 width="20.000000pt" height="30.000000pt" viewBox="0 0 194.000000 260.000000"
 preserveAspectRatio="xMidYMid meet">

<g transform="translate(0.000000,260.000000) scale(0.100000,-0.100000)"
fill="#bf1e2e" stroke="none">
<path d="M901 2535 c-69 -59 -163 -111 -251 -141 -81 -28 -327 -26 -422 3
l-68 20 0 -524 0 -525 -35 4 c-33 4 -35 2 -54 -47 -37 -92 -37 -101 1 -121 43
-22 49 -32 42 -74 -10 -57 -20 -67 -69 -74 l-46 -7 3 -77 3 -76 43 -11 c48
-11 57 -22 66 -81 5 -39 4 -41 -34 -63 -22 -12 -40 -26 -40 -30 0 -5 11 -37
24 -72 l24 -64 49 3 c48 2 48 2 75 -46 l27 -48 -30 -37 -30 -37 52 -60 52 -60
32 20 c43 27 53 25 98 -13 l38 -32 -15 -44 c-9 -24 -16 -45 -16 -46 0 -2 30
-20 66 -40 l66 -37 37 34 36 35 40 -16 c61 -24 65 -29 65 -76 l0 -43 63 -11
c87 -15 85 -16 103 29 l16 40 58 0 58 0 16 -41 16 -40 58 7 c93 11 100 16 104
70 3 45 4 47 50 64 l48 18 31 -36 32 -36 51 28 c90 49 88 47 71 97 l-16 44 38
32 c45 38 55 40 98 13 l32 -20 29 33 c16 17 40 44 53 59 l23 27 -30 37 -31 38
26 48 26 48 49 -2 50 -3 24 64 c13 35 24 67 24 72 0 4 -18 18 -40 30 -26 15
-39 28 -36 38 2 9 7 33 11 54 6 40 31 57 81 57 23 0 24 2 24 79 l0 80 -45 7
c-51 7 -60 18 -68 81 -5 41 -4 44 35 65 44 25 44 26 8 121 -19 52 -21 53 -55
49 l-35 -4 0 524 0 525 -72 -20 c-92 -25 -317 -29 -393 -8 -94 26 -203 86
-296 163 -26 21 -48 38 -50 38 -2 -1 -33 -25 -68 -55z m59 -433 l0 -357 -22
-10 c-13 -6 -28 -20 -34 -32 -23 -48 -45 -63 -93 -63 -54 0 -61 -4 -86 -47
-19 -32 -19 -33 3 -77 12 -26 17 -48 12 -51 -5 -3 -17 12 -26 34 -23 57 -53
52 -68 -10 -4 -21 -11 -27 -31 -25 -20 1 -28 9 -37 39 -9 28 -16 37 -34 37
-17 0 -24 -8 -31 -37 -7 -29 -13 -37 -33 -38 -28 -2 -40 10 -40 41 0 20 -17
34 -40 34 -5 0 -14 -16 -21 -35 -7 -19 -15 -35 -19 -35 -3 0 -15 -3 -27 -6
-19 -5 -23 -2 -23 18 0 35 -34 65 -55 48 -13 -11 -15 32 -15 394 l0 406 28 -7
c15 -3 35 -6 44 -5 10 0 20 -3 23 -9 4 -5 55 -9 114 -9 113 0 248 25 304 56
15 8 27 13 27 10 0 -6 113 54 120 64 7 9 43 29 53 30 4 0 7 -161 7 -358z m66
341 c49 -43 157 -94 254 -120 81 -21 289 -29 345 -13 22 6 48 14 58 16 16 5
17 -20 17 -425 0 -338 -3 -431 -12 -432 -7 -1 -25 -2 -40 -3 l-28 -2 0 273 0
274 -42 -24 c-35 -19 -44 -30 -46 -55 -3 -27 0 -32 17 -32 20 0 21 -6 21 -95
0 -57 -4 -95 -10 -95 -6 0 -10 35 -10 84 0 81 -1 84 -25 88 -24 5 -25 3 -25
-38 0 -23 -4 -46 -10 -49 -6 -4 -10 15 -10 49 0 43 3 56 15 56 12 0 15 18 15
108 -1 108 -9 138 -40 142 -50 7 -64 -12 -63 -87 1 -24 2 -86 2 -138 1 -88 2
-95 21 -95 19 0 20 -7 20 -100 0 -60 -4 -100 -10 -100 -6 0 -10 37 -10 90 l0
90 -37 -1 c-21 -1 -30 -3 -20 -6 19 -5 17 -30 -2 -25 -6 1 -11 -11 -11 -27 0
-17 -4 -33 -10 -36 -6 -4 -10 17 -10 54 0 54 2 61 20 61 19 0 20 7 20 95 0 83
-3 98 -22 120 l-21 25 -21 -33 c-20 -30 -21 -50 -26 -301 l-5 -270 -40 -2
c-22 -1 -43 0 -48 3 -4 2 2 22 14 43 38 67 8 120 -71 126 -52 3 -92 32 -105
75 -4 10 -17 22 -31 25 l-25 6 2 359 c1 378 1 380 45 342z m456 -368 c0 -5 -5
-11 -11 -13 -6 -2 -11 4 -11 13 0 9 5 15 11 13 6 -2 11 -8 11 -13z m-32 -40
c0 -8 -4 -15 -10 -15 -5 0 -10 7 -10 15 0 8 5 15 10 15 6 0 10 -7 10 -15z m32
0 c0 -5 -5 -11 -11 -13 -6 -2 -11 4 -11 13 0 9 5 15 11 13 6 -2 11 -8 11 -13z
m-32 -35 c0 -5 -4 -10 -10 -10 -5 0 -10 5 -10 10 0 6 5 10 10 10 6 0 10 -4 10
-10z m-82 -11 c-2 -6 -8 -10 -13 -10 -5 0 -11 4 -13 10 -2 6 4 11 13 11 9 0
15 -5 13 -11z m92 -24 c0 -8 -7 -15 -15 -15 -16 0 -20 12 -8 23 11 12 23 8 23
-8z m-130 -21 c0 -8 -4 -12 -10 -9 -5 3 -10 10 -10 16 0 5 5 9 10 9 6 0 10 -7
10 -16z m38 5 c-2 -6 -8 -10 -13 -10 -5 0 -11 4 -13 10 -2 6 4 11 13 11 9 0
15 -5 13 -11z m232 -14 c0 -8 -4 -15 -10 -15 -5 0 -10 7 -10 15 0 8 5 15 10
15 6 0 10 -7 10 -15z m-150 -10 c0 -8 -4 -15 -10 -15 -5 0 -10 7 -10 15 0 8 5
15 10 15 6 0 10 -7 10 -15z m-118 -50 c0 -5 -5 -11 -11 -13 -6 -2 -11 4 -11
13 0 9 5 15 11 13 6 -2 11 -8 11 -13z m208 -26 c0 -5 -7 -9 -15 -9 -15 0 -20
12 -9 23 8 8 24 -1 24 -14z m-120 -59 c0 -5 -4 -10 -10 -10 -5 0 -10 5 -10 10
0 6 5 10 10 10 6 0 10 -4 10 -10z m118 -11 c-2 -6 -8 -10 -13 -10 -5 0 -11 4
-13 10 -2 6 4 11 13 11 9 0 15 -5 13 -11z m-118 -29 c0 -5 -4 -10 -10 -10 -5
0 -10 5 -10 10 0 6 5 10 10 10 6 0 10 -4 10 -10z m-409 -40 c10 -6 19 -17 19
-24 0 -8 14 -26 31 -40 23 -19 42 -26 74 -26 34 0 47 -5 59 -22 20 -28 20 -59
1 -84 -19 -25 -19 -93 0 -118 19 -25 19 -56 0 -82 -10 -15 -29 -23 -65 -26
-53 -5 -82 -24 -103 -67 -10 -21 -20 -27 -54 -29 -38 -3 -43 0 -57 27 -25 46
-63 71 -112 71 -33 0 -46 5 -58 22 -20 28 -20 57 -1 82 19 25 19 95 0 120 -19
25 -19 56 0 82 10 16 29 23 67 26 52 5 59 10 119 86 12 15 53 16 80 2z m-721
-237 c0 -15 -2 -15 -23 -7 -9 3 -12 14 -9 31 5 25 6 25 18 8 8 -10 14 -25 14
-32z m140 6 c0 -13 -21 -22 -31 -12 -4 4 -6 19 -2 32 6 23 7 23 20 6 7 -11 13
-22 13 -26z m134 -11 c-3 -5 -12 -8 -20 -8 -15 0 -18 18 -7 45 5 15 8 14 19
-6 7 -13 10 -27 8 -31z m129 1 c-20 -20 -33 -1 -21 27 12 26 12 26 22 5 6 -15
6 -25 -1 -32z m-391 -56 c14 -53 59 -52 72 2 6 23 38 41 55 31 5 -3 12 -18 16
-33 6 -26 21 -42 37 -43 4 0 17 18 28 41 25 48 46 48 69 2 9 -18 22 -35 28
-37 16 -7 53 32 53 56 0 31 37 20 57 -16 8 -14 8 -25 0 -37 -17 -28 18 -96 54
-104 16 -4 32 -4 36 -2 19 12 74 -24 89 -57 10 -20 27 -37 41 -40 l23 -6 0
-456 0 -455 -62 6 c-119 11 -175 30 -328 111 -43 22 -189 168 -210 209 -8 17
-21 36 -27 43 -7 7 -16 25 -20 40 -3 15 -13 37 -21 50 -8 12 -23 57 -33 100
-15 63 -18 125 -19 349 -1 252 1 272 17 276 29 7 37 2 45 -30z m44 29 c8 -5 8
-15 2 -32 -10 -24 -11 -24 -18 -5 -17 40 -10 54 16 37z m143 -23 c-12 -23 -29
-16 -29 11 0 13 5 17 20 13 16 -4 18 -9 9 -24z m144 1 c-7 -25 -15 -25 -30 -1
-10 16 -10 20 5 24 25 5 31 0 25 -23z m1067 -232 c0 -188 -4 -273 -16 -336
-14 -75 -46 -167 -74 -212 -5 -8 -17 -30 -26 -49 -19 -37 -177 -201 -194 -201
-6 0 -26 -11 -44 -25 -18 -14 -37 -25 -43 -25 -5 0 -25 -7 -43 -16 -45 -23
-146 -49 -227 -59 l-53 -6 0 455 0 456 25 6 c13 3 27 14 30 24 14 45 54 71
118 75 60 4 94 64 63 115 -9 16 -16 33 -16 39 0 8 75 11 250 11 l250 0 0 -252z
m-1485 -248 c4 -16 4 -34 0 -40 -10 -17 -25 -1 -25 26 0 14 -4 22 -10 19 -5
-3 -10 -17 -10 -31 0 -13 -4 -24 -10 -24 -5 0 -10 11 -10 25 0 18 -5 25 -19
25 -11 0 -22 4 -26 9 -6 11 17 18 67 20 33 1 37 -2 43 -29z m1535 -21 c0 -17
4 -28 10 -24 6 3 10 15 10 26 0 10 5 19 10 19 6 0 10 -11 10 -25 0 -14 5 -25
10 -25 6 0 10 11 10 25 0 14 5 25 10 25 6 0 10 -19 10 -41 0 -41 0 -41 -31
-35 -17 3 -42 6 -55 6 -19 0 -24 5 -24 24 0 31 10 56 21 56 5 0 9 -14 9 -31z
m-1575 -52 c30 -8 50 -19 50 -27 0 -8 -19 -27 -42 -44 -42 -29 -63 -31 -47 -4
12 18 5 51 -12 61 -15 8 -19 27 -6 27 4 0 30 -6 57 -13z m1562 -44 c-2 -34 0
-38 23 -38 19 0 26 6 28 25 4 21 2 22 -12 11 -20 -17 -30 -9 -22 17 8 23 51
19 60 -5 10 -24 -4 -60 -27 -70 -48 -22 -97 24 -75 71 16 37 28 32 25 -11z
m-1486 -69 c15 -42 3 -67 -32 -62 -17 3 -30 -1 -33 -9 -3 -7 -10 -13 -17 -13
-7 0 -8 7 -4 18 20 47 19 55 -5 47 -37 -12 -19 17 21 31 50 18 58 17 70 -12z
m1459 -20 c-12 -32 -12 -34 0 -34 5 0 12 11 16 25 9 36 28 31 21 -5 -8 -36 10
-41 19 -5 3 14 10 25 15 25 14 0 11 -44 -4 -64 -12 -17 -18 -17 -53 -6 -21 7
-42 16 -47 19 -11 11 13 71 29 71 10 0 11 -6 4 -26z m-1430 -53 c0 -4 -22 -18
-50 -29 -38 -16 -50 -18 -50 -8 0 8 17 21 38 29 43 18 62 21 62 8z m18 -46
c16 -34 15 -45 -5 -67 -23 -26 -58 -22 -82 8 -12 15 -21 30 -21 34 0 8 70 48
86 49 6 1 16 -10 22 -24z m1462 5 c0 -6 -7 -24 -15 -41 l-16 -29 -42 21 c-51
26 -50 25 -43 38 4 6 16 4 34 -5 37 -19 49 -18 57 6 7 21 25 28 25 10z m-1402
-102 c15 -25 15 -28 -3 -47 -23 -26 -29 -26 -53 -1 -12 13 -25 18 -35 14 -28
-10 -19 13 16 40 38 31 53 30 75 -6z m1292 2 c25 -19 25 -19 42 3 24 31 34 13
12 -22 l-19 -29 -42 25 c-42 25 -55 43 -30 43 6 0 23 -9 37 -20z m-4 -49 c25
-49 -26 -98 -74 -72 -30 16 -37 48 -17 77 22 33 74 31 91 -5z m-1253 2 c4 -4
-5 -19 -19 -34 -16 -17 -24 -34 -21 -43 9 -22 20 -20 51 9 l27 25 39 -27 c22
-16 42 -34 44 -40 8 -20 -4 -42 -25 -48 -10 -4 -19 -15 -19 -26 0 -11 -4 -17
-10 -14 -5 3 -10 16 -10 29 0 30 -10 39 -27 24 -26 -22 -25 2 2 37 32 43 29
56 -5 20 -25 -27 -59 -32 -78 -13 -18 18 -14 47 11 78 23 31 30 34 40 23z
m1130 -62 c-13 -11 -23 -28 -23 -39 0 -30 30 -36 55 -12 30 28 43 8 15 -20
-28 -28 -70 -23 -89 11 -13 24 -13 29 2 53 11 15 27 26 40 26 l22 -1 -22 -18z
m-93 -71 c0 -5 -7 -10 -15 -10 -23 0 -36 -34 -21 -55 13 -18 56 -14 56 6 0 6
-9 7 -20 4 -24 -7 -26 7 -5 25 18 15 45 -2 45 -30 0 -39 -60 -60 -89 -31 -25
25 -27 58 -4 83 17 19 53 25 53 8z m-821 -30 c37 -23 51 -39 57 -62 l6 -32 15
27 c20 39 36 24 18 -18 -28 -70 -32 -73 -44 -42 -6 16 -11 33 -11 38 0 17 -18
9 -23 -11 -3 -11 -10 -20 -16 -20 -15 0 -14 11 4 53 18 45 19 48 1 41 -8 -3
-17 -1 -21 5 -3 6 -14 11 -23 11 -13 0 -12 -5 8 -20 29 -22 19 -40 -11 -21
-30 18 -36 5 -8 -18 13 -11 21 -22 17 -26 -6 -6 -68 21 -68 30 0 7 44 95 47
95 1 0 25 -14 52 -30z m761 -98 c-5 -2 -23 4 -41 13 -34 18 -33 21 -13 -30 4
-9 1 -15 -9 -15 -14 0 -54 86 -44 96 3 3 20 -2 37 -11 l33 -17 -6 25 c-12 45
8 39 30 -10 12 -26 18 -49 13 -51z m-108 8 c18 -55 5 -83 -14 -32 -11 27 -13
29 -24 14 -10 -13 -9 -19 5 -28 26 -19 4 -28 -24 -10 -14 9 -26 13 -26 9 -1
-5 -2 -14 -3 -20 -3 -28 -21 -12 -33 29 -17 58 -18 56 22 64 24 4 41 2 52 -7
15 -12 16 -12 11 3 -6 16 -1 28 12 28 3 0 13 -22 22 -50z m-471 20 c31 -17 22
-30 -18 -27 -34 2 -38 0 -38 -23 0 -19 6 -26 25 -28 21 -4 22 -2 11 12 -17 20
-10 29 13 20 21 -8 17 -43 -5 -57 -25 -16 -69 16 -69 50 0 29 25 63 47 63 8 0
23 -5 34 -10z m59 -15 c0 -2 -5 -27 -11 -55 -12 -59 -35 -70 -25 -12 3 20 6
45 6 55 0 9 7 17 15 17 8 0 15 -2 15 -5z m270 -3 c0 -5 -12 -13 -27 -19 l-28
-11 33 -1 c38 -1 42 -16 7 -25 -35 -9 -31 -23 5 -18 35 5 41 -13 8 -22 -48
-13 -57 -8 -64 34 -5 32 -11 40 -28 40 -11 0 -28 -5 -36 -10 -11 -7 -7 -10 18
-10 42 0 39 -22 -4 -31 -31 -7 -23 -12 14 -9 14 1 22 -4 22 -14 0 -12 -10 -16
-40 -16 l-40 0 0 54 0 55 53 4 c28 2 64 4 80 5 15 1 27 -2 27 -6z m-223 -29
l17 -26 6 23 c8 33 30 38 30 7 0 -35 -11 -87 -19 -87 -3 0 -16 15 -28 33 l-23
32 0 -27 c0 -28 -14 -45 -24 -29 -8 13 5 101 15 101 5 0 16 -12 26 -27z"/>
<path d="M665 2140 c3 -5 8 -10 11 -10 2 0 4 5 4 10 0 6 -5 10 -11 10 -5 0 -7
-4 -4 -10z"/>
<path d="M630 2130 c0 -5 5 -10 10 -10 6 0 10 -5 10 -11 0 -6 -9 -9 -20 -6
-13 3 -20 0 -20 -9 0 -8 -9 -14 -20 -14 -11 0 -20 -7 -20 -15 0 -22 27 -18 40
5 11 21 40 28 40 10 0 -5 -4 -10 -10 -10 -5 0 -10 -5 -10 -11 0 -8 4 -8 15 1
8 6 18 9 23 6 6 -3 15 1 22 10 7 8 19 13 26 10 7 -3 16 -1 19 4 4 6 -5 10 -19
10 -14 0 -26 5 -26 10 0 6 -9 10 -20 10 -11 0 -20 5 -20 10 0 6 -4 10 -10 10
-5 0 -10 -4 -10 -10z"/>
<path d="M700 2129 c0 -5 5 -7 10 -4 6 3 10 8 10 11 0 2 -4 4 -10 4 -5 0 -10
-5 -10 -11z"/>
<path d="M525 2081 c5 -24 3 -31 -8 -31 -8 0 -17 7 -21 15 -3 8 -10 15 -16 15
-5 0 -10 -7 -10 -15 0 -8 7 -15 15 -15 8 0 15 -7 15 -15 0 -11 -8 -15 -22 -13
-13 2 -23 -1 -23 -7 0 -5 10 -9 23 -7 25 3 32 -25 7 -34 -8 -4 -15 -10 -15
-15 0 -5 7 -9 15 -9 8 0 15 7 15 16 0 9 6 14 13 11 6 -2 12 -13 12 -25 0 -12
5 -22 10 -22 6 0 10 9 10 19 0 30 14 37 29 15 8 -10 18 -15 23 -11 4 5 0 13
-10 18 -25 15 -22 40 6 37 12 -2 22 2 22 7 0 6 -10 9 -22 7 -15 -2 -23 3 -23
12 0 7 -7 16 -15 20 -8 3 -14 15 -12 27 1 12 -4 24 -12 27 -10 3 -12 -3 -6
-27z"/>
<path d="M763 2072 c-36 -5 -27 -22 12 -22 l35 0 0 -140 c0 -105 3 -140 13
-140 10 0 14 138 8 281 -1 18 -31 27 -68 21z"/>
<path d="M347 2063 c-4 -3 -7 -71 -7 -150 0 -187 18 -192 22 -5 l3 137 43 3
c23 2 42 7 42 13 0 10 -93 13 -103 2z"/>
<path d="M700 2060 c0 -5 5 -10 11 -10 5 0 7 5 4 10 -3 6 -8 10 -11 10 -2 0
-4 -4 -4 -10z"/>
<path d="M665 2040 c3 -5 8 -10 11 -10 2 0 4 5 4 10 0 6 -5 10 -11 10 -5 0 -7
-4 -4 -10z"/>
<path d="M380 1900 l0 -130 210 0 210 0 0 131 0 131 -52 -5 c-29 -3 -62 -6
-73 -8 -23 -5 -48 -35 -50 -62 -2 -21 -24 -39 -42 -32 -6 2 -17 -3 -23 -11
-15 -17 -32 -18 -48 -2 -7 7 -20 13 -29 13 -9 0 -19 7 -23 15 -4 8 -12 24 -19
35 -6 11 -14 28 -17 38 -4 9 -15 17 -25 17 -18 0 -19 -9 -19 -130z"/>
<path d="M310 1734 c0 -3 5 -14 10 -25 10 -18 24 -19 260 -19 136 0 255 3 264
6 9 3 16 15 16 25 0 18 -12 19 -275 19 -151 0 -275 -3 -275 -6z m110 -14 c0
-5 -12 -10 -26 -10 -14 0 -23 4 -19 10 3 6 15 10 26 10 10 0 19 -4 19 -10z"/>
<path d="M850 1576 c0 -2 13 -6 29 -8 17 -2 28 -1 25 4 -5 8 -54 12 -54 4z"/>
<path d="M836 1553 c-11 -11 -6 -23 9 -23 8 0 15 4 15 9 0 13 -16 22 -24 14z"/>
<path d="M901 1539 c-18 -11 -30 -23 -27 -27 4 -3 10 -2 14 4 10 16 52 36 52
26 0 -13 -35 -42 -51 -42 -9 0 -10 -3 -3 -8 6 -4 14 -14 17 -22 4 -12 6 -11 6
3 1 11 9 17 26 17 23 0 25 -4 25 -42 0 -30 3 -39 9 -28 6 8 7 27 4 42 -5 26
-3 28 27 28 29 0 32 -3 28 -25 -3 -13 -1 -22 3 -19 5 3 9 14 9 25 0 12 7 19
20 19 19 0 19 2 5 23 -32 49 -107 61 -164 26z m136 -14 c17 -15 23 -24 14 -25
-8 0 -26 10 -40 22 -14 13 -20 16 -13 8 17 -20 15 -30 -8 -30 -35 0 -24 45 12
49 4 1 20 -10 35 -24z m-77 -5 c0 -14 -7 -20 -22 -20 -20 0 -21 1 -3 20 10 11
20 20 22 20 1 0 3 -9 3 -20z"/>
<path d="M1058 1553 c7 -3 16 -2 19 1 4 3 -2 6 -13 5 -11 0 -14 -3 -6 -6z"/>
<path d="M1096 1553 c-11 -11 -6 -23 9 -23 8 0 15 4 15 9 0 13 -16 22 -24 14z"/>
<path d="M1110 1514 c0 -24 -121 -124 -150 -124 -11 0 -64 56 -92 99 -10 14
-18 22 -18 18 0 -12 55 -90 74 -106 19 -16 20 -28 4 -34 -7 -2 -5 -3 6 -1 10
1 42 -10 71 -27 55 -31 80 -36 91 -18 4 8 -1 9 -15 4 -15 -4 -36 2 -68 21 -39
22 -44 29 -31 38 9 6 36 25 61 43 47 33 85 79 73 90 -3 3 -6 2 -6 -3z"/>
<path d="M850 1439 c0 -19 4 -41 9 -48 6 -10 8 1 4 30 -7 55 -13 63 -13 18z"/>
<path d="M1076 1415 c-4 -17 -13 -26 -24 -24 -33 3 -42 -1 -42 -18 0 -13 3
-14 12 -5 7 7 18 12 26 12 12 0 12 -3 1 -17 -12 -16 -11 -16 8 0 20 17 39 64
30 74 -3 2 -8 -8 -11 -22z"/>
<path d="M814 1394 c-8 -30 6 -48 32 -41 15 4 14 5 -5 6 -21 1 -23 5 -17 31 7
37 -1 40 -10 4z"/>
<path d="M900 1390 c0 -5 5 -10 11 -10 5 0 7 5 4 10 -3 6 -8 10 -11 10 -2 0
-4 -4 -4 -10z"/>
<path d="M872 1358 c6 -18 28 -21 28 -4 0 9 -7 16 -16 16 -9 0 -14 -5 -12 -12z"/>
<path d="M1087 1363 c-12 -11 -8 -23 8 -23 8 0 15 7 15 15 0 16 -12 20 -23 8z"/>
<path d="M946 1338 c4 -6 -2 -8 -17 -3 -19 5 -21 4 -9 -4 18 -13 73 -15 66 -2
-3 5 -15 11 -26 14 -12 3 -18 1 -14 -5z"/>
<path d="M550 1225 c-7 -9 -11 -17 -9 -20 3 -2 10 5 17 15 14 24 10 26 -8 5z"/>
<path d="M458 1197 c-9 -7 -20 -25 -23 -40 -6 -20 -1 -31 19 -50 25 -24 26
-28 26 -149 l0 -125 33 -37 c27 -28 32 -42 29 -69 -2 -20 2 -37 10 -44 18 -14
80 -34 74 -24 -3 5 3 16 14 26 41 37 11 95 -50 95 -28 0 -40 7 -63 35 -27 34
-28 36 -25 157 2 86 7 123 16 126 6 2 12 -4 12 -14 0 -30 7 -11 14 38 6 40 4
50 -13 67 -24 24 -48 26 -73 8z m73 -28 c8 -15 8 -24 0 -32 -8 -8 -11 -6 -11
9 0 15 -2 16 -10 4 -6 -9 -5 -19 2 -28 10 -11 5 -13 -23 -10 -27 2 -35 8 -37
26 -6 37 5 52 37 52 21 0 34 -7 42 -21z m97 -411 c13 -13 16 -58 4 -58 -4 0
-14 6 -22 13 -12 10 -12 9 -1 -6 18 -24 7 -33 -27 -21 -32 11 -40 44 -17 68
19 19 46 21 63 4z"/>
<path d="M475 1170 c-3 -6 1 -7 9 -4 18 7 21 14 7 14 -6 0 -13 -4 -16 -10z"/>
<path d="M572 1193 c-10 -4 -6 -9 10 -17 32 -16 37 -67 9 -95 -26 -26 -27 -66
-1 -88 15 -13 18 -25 13 -59 -8 -60 0 -83 52 -137 25 -27 45 -54 45 -60 0 -7
4 -6 9 2 12 19 3 35 -49 89 -37 39 -40 46 -39 94 2 38 6 52 19 55 47 12 50 94
5 115 -18 8 -25 19 -25 38 0 33 -29 70 -48 63z m88 -133 c21 -40 -9 -78 -51
-65 -25 8 -35 49 -17 69 19 22 55 20 68 -4z"/>
<path d="M531 924 c-1 -37 4 -57 17 -71 9 -10 13 -12 7 -4 -5 8 -13 39 -16 70
l-6 56 -2 -51z"/>
<path d="M597 819 c4 -13 8 -18 11 -10 2 7 -1 18 -6 23 -8 8 -9 4 -5 -13z"/>
<path d="M567 799 c7 -7 15 -10 18 -7 3 3 -2 9 -12 12 -14 6 -15 5 -6 -5z"/>
<path d="M751 751 c19 -16 22 -23 13 -37 -15 -25 -29 -27 -48 -9 -9 9 -16 12
-16 6 0 -6 9 -15 21 -21 16 -9 25 -8 40 6 10 9 19 22 19 29 0 13 -32 45 -44
45 -5 0 2 -9 15 -19z"/>
<path d="M1103 1189 c-13 -13 2 -69 18 -69 5 0 9 -76 9 -170 0 -107 -4 -170
-10 -170 -5 0 -10 -7 -10 -16 0 -30 166 -3 225 36 36 24 55 26 55 5 0 -17 -78
-65 -107 -65 -18 0 -33 -20 -47 -62 -5 -17 6 -18 144 -18 120 0 150 3 150 14
0 7 -9 51 -21 97 -14 57 -27 89 -41 100 -22 17 -22 17 -3 45 32 48 42 70 65
143 21 66 22 121 1 121 -4 0 -88 -81 -187 -180 -98 -99 -182 -180 -186 -180
-5 0 -8 60 -8 134 l0 134 25 6 c33 8 33 48 0 81 -26 27 -54 32 -72 14z m41
-18 c3 -5 -1 -11 -9 -15 -15 -6 -29 7 -18 18 9 9 21 8 27 -3z m31 -39 c0 -18
-20 -15 -23 4 -3 10 1 15 10 12 7 -3 13 -10 13 -16z m343 -34 c-5 -45 -45
-148 -57 -148 -4 0 -13 23 -20 51 l-13 51 43 44 c24 24 45 44 47 44 3 0 2 -19
0 -42z m-88 -153 c0 -64 -56 -98 -125 -75 -19 6 -35 14 -35 18 0 4 30 37 68
75 l67 68 12 -28 c7 -15 12 -42 13 -58z m-90 -116 c0 -11 -101 -51 -142 -57
-21 -2 -38 -1 -38 4 0 4 18 27 41 50 l41 42 49 -16 c27 -9 49 -19 49 -23z m93
9 c-10 -11 -19 -15 -21 -8 -5 15 18 41 30 34 5 -3 1 -15 -9 -26z m57 -70 c6
-29 14 -61 17 -71 4 -16 -5 -17 -119 -15 -74 2 -123 7 -122 13 0 6 36 29 80
53 43 23 88 51 98 62 11 10 23 17 27 15 4 -3 12 -29 19 -57z"/>
<path d="M165 830 c3 -5 12 -7 20 -3 21 7 19 13 -6 13 -11 0 -18 -4 -14 -10z"/>
<path d="M204 734 c3 -9 6 -18 6 -20 0 -2 5 -4 10 -4 6 0 10 9 10 20 0 12 -7
20 -16 20 -11 0 -14 -5 -10 -16z"/>
<path d="M242 618 c-25 -12 -25 -26 1 -42 21 -14 51 13 41 37 -7 19 -10 20
-42 5z"/>
<path d="M306 531 c-7 -10 22 -37 30 -28 9 8 -3 37 -15 37 -5 0 -12 -4 -15 -9z"/>
<path d="M1574 485 c-9 -23 3 -45 26 -45 25 0 37 25 20 45 -16 19 -39 19 -46
0z"/>
<path d="M455 390 c-8 -13 3 -30 21 -30 18 0 18 14 0 29 -10 8 -16 9 -21 1z"/>
<path d="M1167 243 c-13 -12 -7 -23 13 -23 11 0 20 7 20 15 0 15 -21 21 -33 8z"/>
</g>
</svg>
